# AST/ASF file generated using VICON BodyLanguage
# -----------------------------------------------
:version 1.10
:name VICON
:units
  mass 1.0
  length 0.45
  angle deg
:documentation
   .ast/.asf automatically generated from VICON data using
   VICON BodyBuilder and BodyLanguage model FoxedUp or BRILLIANT.MOD
:root
   order TX TY TZ RX RY RZ
   axis XYZ
   position 0 0 0  
   orientation 0 0 0 
:bonedata
  begin
     id 1 
     name lhipjoint
     direction 0.521689 -0.742065 0.420928 
     length 2.47002 
     axis 0 0 0  XYZ
  end
  begin
     id 2 
     name lfemur
     direction 0.34202 -0.939693 0  
     length 7.24654  
     axis 0 0 20  XYZ
    dof rx ry rz
    limits (-160.0 20.0)
           (-70.0 70.0)
           (-60.0 70.0)
  end
  begin
     id 3 
     name ltibia
     direction 0.34202 -0.939693 0   
     length 8.04849   
     axis 0 0 20   XYZ
    dof rx
    limits (-10.0 170.0)
  end
  begin
     id 4 
     name lfoot
     direction 0.0745411 -0.2048 0.975961   
     length 1.72367   
     axis -90 7.62852e-016 20   XYZ
    dof rx rz
    limits (-45.0 90.0)
           (-70.0 20.0)
  end
  begin
     id 5 
     name ltoes
     direction 1.53556e-011 -4.21901e-011 1   
     length 0.87311   
     axis -90 7.62852e-016 20   XYZ
    dof rx
    limits (-90.0 20.0)
  end
  begin
     id 6 
     name rhipjoint
     direction -0.52849 -0.738415 0.418857   
     length 2.48223  
     axis 0 0 0  XYZ 
  end
  begin
     id 7 
     name rfemur
     direction -0.34202 -0.939693 0   
     length 7.15571   
     axis 0 0 -20   XYZ
    dof rx ry rz
    limits (-160.0 20.0)
           (-70.0 70.0)
           (-70.0 60.0)
  end
  begin
     id 8 
     name rtibia
     direction -0.34202 -0.939693 0   
     length 7.81659   
     axis 0 0 -20   XYZ
    dof rx
    limits (-10.0 170.0)
 end
 begin
     id 9 
     name rfoot
     direction -0.0917348 -0.252039 0.963359   
     length 1.84382  
     axis -90 -7.62852e-016 -20   XYZ
    dof rx rz
    limits (-45.0 90.0)
           (-20.0 70.0)
  end
  begin
     id 10 
     name rtoes
     direction -1.53551e-011 -4.21879e-011 1   
     length 0.927771   
     axis -90 -7.62852e-016 -20   XYZ
    dof rx
    limits (-90.0 20.0)
  end
  begin
     id 11 
     name lowerback
     direction 0.00583058 0.999822 0.0179296   
     length 2.1429   
     axis 0 0 0   XYZ
    dof rx ry rz
    limits (-20.0 45.0)
           (-30.0 30.0)
           (-30.0 30.0)
  end
  begin
     id 12 
     name upperback
     direction -0.0137999 0.999752 -0.0175071   
     length 2.14252   
     axis 0 0 0   XYZ
    dof rx ry rz
    limits (-20.0 45.0)
           (-30.0 30.0)
           (-30.0 30.0)
  end
  begin
     id 13 
     name thorax
     direction -0.0158036 0.99955 -0.0254909   
     length 2.1383   
     axis 0 0 0   XYZ
    dof rx ry rz
    limits (-20.0 45.0)
           (-30.0 30.0)
           (-30.0 30.0)
  end
  begin
     id 14 
     name lowerneck
     direction -0.0101179 0.999403 -0.0330262   
     length 1.65808   
     axis 0 0 0   XYZ
    dof rx ry rz
    limits (-20.0 45.0)
           (-30.0 30.0)
           (-30.0 30.0)
  end
  begin
     id 15 
     name upperneck
     direction 0.0497734 0.995978 -0.074501   
     length 1.5897   
     axis 0 0 0   XYZ
    dof rx ry rz
    limits (-20.0 45.0)
           (-30.0 30.0)
           (-30.0 30.0)
  end
  begin
     id 16
     name head
     direction 0.0189524 0.999519 -0.0245438  
     length 1.74024  
     axis 0 0 0   XYZ
    dof rx ry rz
    limits (-20.0 45.0)
           (-30.0 30.0)
           (-30.0 30.0)
  end
  begin
     id 17 
     name lclavicle
     direction 0.945604 0.324422 0.0241537  
     length 3.59089  
     axis 0 0 0   XYZ
    dof ry rz
    limits (-20.0 10.0)
           (0.0 20.0)
  end
  begin
     id 18 
     name lhumerus
     direction 1 -4.48964e-011 -2.63524e-027   
     length 5.2391   
     axis 180 -30 -90   XYZ
    dof rx ry rz
    limits (-60.0 90.0)
           (-90.0 90.0)
           (-90.0 90.0)
  end
  begin
     id 19
     name lradius
     direction 1 -4.48969e-011 3.86978e-028   
     length 3.31467   
     axis 180 -30 -90   XYZ
    dof rx
    limits (-10.0 170.0)
  end
  begin
     id 20
     name lwrist
     direction 1 -4.48963e-011 7.20928e-028   
     length 1.65734   
     axis -5.52449e-016 90 90   XYZ
    dof ry
    limits (-180.0 0.0)
 end
  begin
     id 21 
     name lhand
     direction 1 -4.48964e-011 1.44186e-027   
     length 0.9659   
     axis -9.20027e-016 90 90   XYZ
    dof rx rz
    limits (-90.0 90.0)
           (-45.0 45.0)
  end
  begin
     id 22 
     name lfingers
     direction 1 -4.48965e-011 2.88371e-027   
     length 0.778733   
     axis -1.84005e-015 90 90   XYZ
    dof rx
    limits (0.0 90.0)
  end
  begin
     id 23
     name lthumb
     direction 0.707107 -6.34931e-011 0.707107   
     length 1.11811   
     axis -90 45 2.85299e-015   XYZ
    dof rx rz
    limits (-45.0 45.0)
           (-45.0 45.0)
  end
  begin
     id 24 
     name rclavicle
     direction -0.923762 0.370785 0.0958234   
     length 3.54196  
     axis 0 0 0   XYZ 
    dof ry rz
    limits (-10.0 20.0)
           (-20.0 0.0)
  end
  begin
     id 25 
     name rhumerus
     direction -1 -4.48966e-011 1.18702e-017  
     length 5.30252   
     axis 180 30 90   XYZ
    dof rx ry rz
    limits (-90.0 60.0)
           (-90.0 90.0)
           (-90.0 90.0)
  end
  begin
     id 26 
     name rradius
     direction -1 -4.48966e-011 4.46736e-027   
     length 3.67875   
     axis 180 30 90   XYZ
    dof rx
    limits (-10.0 170.0)
  end
  begin
     id 27 
     name rwrist
     direction -1 -4.48966e-011 7.20928e-028   
     length 1.83937   
     axis -5.52449e-016 -90 -90   XYZ
    dof ry
    limits (-180.0 0.0)
  end
  begin
     id 28
     name rhand
     direction -1 -4.48973e-011 1.44186e-027   
     length 0.594811   
     axis -9.20027e-016 -90 -90   XYZ
    dof rx rz
    limits (-90.0 90.0)
           (-45.0 45.0)
  end
  begin
     id 29
     name rfingers
     direction -1 -4.48963e-011 2.88371e-027   
     length 0.479552   
     axis -1.84005e-015 -90 -90   XYZ
    dof rx
    limits (0.0 90.0)
  end
  begin
     id 30
     name rthumb
     direction -0.707107 -6.34932e-011 0.707107   
     length 0.688544   
     axis -90 -45 -2.85299e-015   XYZ
    dof rx rz
    limits (-45.0 45.0)
           (-45.0 45.0)
  end
:hierarchy
  begin
    root lhipjoint rhipjoint lowerback
    lhipjoint lfemur
    lfemur ltibia
    ltibia lfoot
    lfoot ltoes
    rhipjoint rfemur
    rfemur rtibia
    rtibia rfoot
    rfoot rtoes
    lowerback upperback
    upperback thorax
    thorax lowerneck lclavicle rclavicle
    lowerneck upperneck
    upperneck head
    lclavicle lhumerus
    lhumerus lradius
    lradius lwrist
    lwrist lhand lthumb
    lhand lfingers
    rclavicle rhumerus
    rhumerus rradius
    rradius rwrist
    rwrist rhand rthumb
    rhand rfingers
  end

#!OML:ASF E:\acrobat2\Project_11_07_03\Capture day 1\Session 1\Acrobat.ASF
:FULLY-SPECIFIED
:DEGREES
518
root 7.17885 9.91776 -10.5623 -303.819 2.58443 -1.21773
lowerback 84.3314 -5.47903 -4.4666
upperback 8.95816 -9.10361 -3.81371
thorax -9.99333 -2.97661 0.913025
lowerneck 7.49426 4.76402 -7.65139
upperneck 16.9847 5.74543 -1.34294
head 4.14791 2.12834 0.907421
rclavicle -1.1609e-013 -1.59028e-015
rhumerus 52.9941 -7.82935 -67.2646
rradius 121.758
rwrist -7.17583
rhand -43.8446 -438.536
rfingers 7.12502
rthumb -16.6716 -252.16
lclavicle -1.1609e-013 -1.59028e-015
lhumerus 32.9256 29.6499 40.3206
lradius 130.883
lwrist 5.55939
lhand -58.8815 -16.8553
lfingers 7.12502
lthumb -31.0864 370.53
rfemur -87.9733 -15.1725 29.4842
rtibia 58.3746
rfoot -23.449 -189.68
rtoes 3.44436
lfemur -86.6944 13.9479 -29.6399
ltibia 52.5805
lfoot -193.899 17.9421
ltoes 35.9286
519
root 7.1708 9.80827 -10.8561 -304.498 2.68745 -1.25749
lowerback 83.0892 -5.66843 -4.29489
upperback 9.25648 -9.14466 -3.87105
thorax -9.83633 -3.02864 0.858244
lowerneck 7.9512 4.65189 -7.15354
upperneck 15.6559 5.59693 -1.79119
head 3.60808 2.13355 0.642262
rclavicle -6.04305e-014 2.06736e-014
rhumerus 53.6843 -8.01177 -67.0279
rradius 120.664
rwrist -7.66256
rhand -43.5439 -438.125
rfingers 7.12502
rthumb -16.3821 -252.547
lclavicle -6.04305e-014 2.06736e-014
lhumerus 33.85 30.4991 40.8932
lradius 130.711
lwrist 5.97419
lhand -58.1041 -13.0537
lfingers 7.12502
lthumb -30.3452 374.471
rfemur -89.3668 -15.2177 29.8776
rtibia 56.0921
rfoot -24.0083 -190.156
rtoes 4.25396
lfemur -87.9241 13.7214 -29.988
ltibia 50.8197
lfoot -194.913 17.7843
ltoes 35.6829
520
root 7.16475 9.69239 -11.1463 -305.186 2.94417 -1.38058
lowerback 81.8855 -5.86138 -3.91216
upperback 9.50144 -9.02545 -3.81943
thorax -9.72614 -3.03169 0.78434
lowerneck 8.51915 4.43862 -6.63277
upperneck 14.5142 5.32582 -2.31485
head 3.13552 2.07278 0.356611
rclavicle 8.11041e-014 -6.36111e-015
rhumerus 54.3494 -8.31116 -66.6499
rradius 119.477
rwrist -7.93421
rhand -42.7923 -438.059
rfingers 7.12502
rthumb -15.6583 -252.555
lclavicle 8.11041e-014 -6.36111e-015
lhumerus 35.0149 30.8773 41.8376
lradius 130.186
lwrist 5.72954
lhand -57.4137 -9.19616
lfingers 7.12502
lthumb -29.6864 378.447
rfemur -90.4593 -15.5039 30.4001
rtibia 54.3186
rfoot -23.8936 -190.659
rtoes 5.86516
lfemur -89.1745 13.4764 -30.1492
ltibia 49.0414
lfoot -195.933 17.6359
ltoes 35.0256
521
root 7.16 9.57431 -11.4368 -305.794 3.15802 -1.46949
lowerback 80.6846 -6.11408 -3.60681
upperback 9.70199 -9.04007 -3.81723
thorax -9.66594 -3.075 0.735356
lowerneck 8.81509 4.26915 -6.14654
upperneck 13.7015 5.1342 -2.76669
head 2.82846 2.03201 0.116498
rclavicle 1.11319e-014 3.97569e-014
rhumerus 55.0134 -8.05649 -66.4896
rradius 118.23
rwrist -7.95447
rhand -41.7179 -438.362
rfingers 7.12502
rthumb -14.6234 -252.174
lclavicle 1.11319e-014 3.97569e-014
lhumerus 35.8928 31.0273 42.5398
lradius 129.186
lwrist 4.17637
lhand -57.3436 -5.02099
lfingers 7.12502
lthumb -29.6195 382.635
rfemur -91.6367 -15.9333 30.9494
rtibia 52.7371
rfoot -23.7605 -190.814
rtoes 5.47233
lfemur -90.5357 13.0831 -30.3914
ltibia 47.196
lfoot -197.012 17.7832
ltoes 35.1646
522
root 7.15276 9.45609 -11.731 -306.31 3.30826 -1.56688
lowerback 79.3495 -6.37835 -3.50755
upperback 9.95357 -9.22749 -3.87593
thorax -9.54921 -3.18205 0.766684
lowerneck 8.79234 4.31842 -5.82661
upperneck 13.1761 5.23598 -3.20479
head 2.67091 2.10562 -0.0810986
rclavicle 1.49486e-013 1.90833e-014
rhumerus 55.7257 -7.22174 -66.545
rradius 117.028
rwrist -7.765
rhand -40.8379 -438.729
rfingers 7.12502
rthumb -13.7755 -251.747
lclavicle 1.49486e-013 1.90833e-014
lhumerus 37.0089 32.0754 43.5786
lradius 128.892
lwrist 5.54736
lhand -56.8145 -3.28188
lfingers 7.12502
lthumb -29.1143 384.462
rfemur -93.1257 -16.1772 31.5427
rtibia 50.8942
rfoot -23.7878 -190.909
rtoes 5.04705
lfemur -92.1012 12.6247 -30.7466
ltibia 45.2531
lfoot -198.303 17.7617
ltoes 34.7155
523
root 7.14409 9.33326 -12.0246 -306.86 3.69841 -1.84852
lowerback 77.8728 -6.63335 -3.14074
upperback 10.2865 -9.19925 -3.81474
thorax -9.33716 -3.22941 0.742486
lowerneck 8.86479 4.33433 -5.46816
upperneck 12.7691 5.30351 -3.79754
head 2.54715 2.15889 -0.333567
rclavicle -3.81667e-014 -7.95139e-015
rhumerus 56.4864 -6.86113 -66.5064
rradius 115.79
rwrist -7.36548
rhand -39.5277 -438.876
rfingers 7.12502
rthumb -12.5125 -251.519
lclavicle -3.81667e-014 -7.95139e-015
lhumerus 38.4047 33.0271 44.9548
lradius 128.197
lwrist 6.3492
lhand -55.8443 -0.432234
lfingers 7.12502
lthumb -28.1874 387.468
rfemur -94.7431 -16.1893 32.4412
rtibia 48.8796
rfoot -23.88 -191.178
rtoes 5.80085
lfemur -93.4748 12.4907 -30.8509
ltibia 43.6702
lfoot -199.508 17.1612
ltoes 32.5997
524
root 7.13703 9.20527 -12.3146 -307.476 4.02143 -2.06018
lowerback 76.3078 -6.94282 -2.62631
upperback 10.67 -9.14274 -3.80007
thorax -9.08204 -3.2607 0.589343
lowerneck 9.13494 4.35478 -5.35542
upperneck 12.3323 5.30894 -3.92539
head 2.36087 2.18473 -0.401262
rclavicle 1.00187e-013 -1.27222e-014
rhumerus 57.3552 -7.01152 -66.3049
rradius 114.346
rwrist -7.44814
rhand -38.4642 -438.421
rfingers 7.12502
rthumb -11.487 -251.913
lclavicle 1.00187e-013 -1.27222e-014
lhumerus 39.9609 33.7534 46.4672
lradius 127.271
lwrist 7.25605
lhand -54.516 1.97921
lfingers 7.12502
lthumb -26.9171 390.082
rfemur -96.4319 -16.2725 33.2942
rtibia 46.8988
rfoot -23.9548 -191.402
rtoes 7.08025
lfemur -95.0332 12.0047 -30.9323
ltibia 41.7559
lfoot -200.427 16.8741
ltoes 32.2554
525
root 7.12866 9.07771 -12.6013 -308.172 4.0138 -2.06523
lowerback 74.8514 -7.16509 -2.39571
upperback 11.0318 -9.22599 -3.88841
thorax -8.82849 -3.32918 0.475819
lowerneck 9.19944 4.55642 -5.47239
upperneck 12.3907 5.53786 -3.75391
head 2.36046 2.28843 -0.331442
rclavicle 1.59028e-014 2.38542e-014
rhumerus 58.1952 -6.84091 -65.8142
rradius 112.761
rwrist -8.4019
rhand -39.1224 -437.585
rfingers 7.12502
rthumb -12.1217 -252.786
lclavicle 1.59028e-014 2.38542e-014
lhumerus 41.2946 34.3387 47.8215
lradius 126.273
lwrist 8.53271
lhand -53.0404 4.24021
lfingers 7.12502
lthumb -25.5044 392.553
rfemur -98.1424 -16.4349 33.8919
rtibia 44.9544
rfoot -23.9688 -191.358
rtoes 8.48993
lfemur -96.4398 11.5693 -31.4261
ltibia 39.8475
lfoot -201.572 16.7961
ltoes 31.6754
526
root 7.11948 8.95053 -12.8828 -308.952 3.98055 -2.05668
lowerback 73.5796 -7.27132 -2.24531
upperback 11.331 -9.23659 -3.86804
thorax -8.59318 -3.37513 0.476864
lowerneck 9.08551 4.65304 -5.57805
upperneck 12.812 5.6769 -3.74328
head 2.51885 2.332 -0.306343
rclavicle 6.67916e-014 -1.59028e-015
rhumerus 58.9344 -6.43053 -65.2635
rradius 111.192
rwrist -8.83585
rhand -39.7483 -437.07
rfingers 7.12502
rthumb -12.7251 -253.338
lclavicle 6.67916e-014 -1.59028e-015
lhumerus 42.249 34.691 48.8907
lradius 125.086
lwrist 9.83746
lhand -51.8512 6.78585
lfingers 7.12502
lthumb -24.3649 395.257
rfemur -99.8088 -16.5991 34.5535
rtibia 43.0553
rfoot -24.8128 -191.073
rtoes 5.84257
lfemur -97.6462 11.2888 -31.9777
ltibia 38.3562
lfoot -202.632 16.6992
ltoes 30.6359
527
root 7.1108 8.82326 -13.161 -309.781 3.91848 -2.01255
lowerback 72.3132 -7.44272 -2.04855
upperback 11.662 -9.29052 -3.88628
thorax -8.3218 -3.43466 0.428922
lowerneck 8.92226 4.4886 -5.37542
upperneck 12.9199 5.5363 -4.11874
head 2.6023 2.26421 -0.452936
rclavicle 0 0
rhumerus 59.7801 -6.09806 -65.0232
rradius 109.596
rwrist -8.55205
rhand -39.5027 -436.22
rfingers 7.12502
rthumb -12.4883 -254.173
lclavicle 0 0
lhumerus 42.7784 34.8185 49.3059
lradius 123.486
lwrist 10.7045
lhand -51.5236 8.37848
lfingers 7.12502
lthumb -24.0507 396.891
rfemur -101.543 -16.757 35.2576
rtibia 41.0233
rfoot -25.565 -191.087
rtoes 5.45642
lfemur -98.8465 10.9019 -32.5707
ltibia 36.7154
lfoot -203.636 16.6066
ltoes 29.5929
528
root 7.10079 8.69585 -13.434 -310.679 3.88236 -1.97556
lowerback 70.969 -7.79571 -1.65168
upperback 12.0705 -9.43081 -4.05726
thorax -8.0016 -3.51571 0.162736
lowerneck 9.00887 4.18112 -4.9494
upperneck 12.6528 5.2229 -4.86015
head 2.53324 2.13674 -0.759988
rclavicle -6.36111e-015 -3.18055e-015
rhumerus 60.7697 -5.85998 -64.938
rradius 107.801
rwrist -8.4569
rhand -39.165 -435.023
rfingers 7.12502
rthumb -12.1627 -255.351
lclavicle -6.36111e-015 -3.18055e-015
lhumerus 43.251 34.7351 49.2089
lradius 121.478
lwrist 10.9503
lhand -51.9234 9.06845
lfingers 7.12502
lthumb -24.4341 397.53
rfemur -103.294 -16.8906 36.0911
rtibia 38.8916
rfoot -26.0774 -191.051
rtoes 6.66178
lfemur -99.9976 10.3622 -33.0243
ltibia 35.0248
lfoot -204.344 15.1929
ltoes 27.1381
